<svg width="614" height="613" viewBox="0 0 614 613" fill="none" xmlns="http://www.w3.org/2000/svg">
<mask id="mask0_7_129" style="mask-type:alpha" maskUnits="userSpaceOnUse" x="90" y="90" width="434" height="434">
<path d="M459.596 153.777C374.855 69.0351 237.76 68.7374 153.385 153.112C69.011 237.486 69.3088 374.581 154.05 459.323C238.792 544.064 375.887 544.362 460.261 459.988C544.636 375.613 544.338 238.518 459.596 153.777Z" fill="black"/>
</mask>
<g mask="url(#mask0_7_129)">
<path d="M373.868 679.038C242.137 547.132 110.081 415.552 -21.5866 283.583" stroke="url(#paint0_linear_7_129)" stroke-width="1.9009" stroke-miterlimit="10"/>
<path d="M379.181 673.725C248.365 540.904 113.738 411.819 -16.2737 278.271" stroke="url(#paint1_linear_7_129)" stroke-width="1.9009" stroke-miterlimit="10"/>
<path d="M384.489 668.416C319.315 601.571 250.037 538.863 186.756 470.183C123.585 401.62 53.4555 340.225 -10.9657 272.962" stroke="url(#paint2_linear_7_129)" stroke-width="1.9009" stroke-miterlimit="10"/>
<path d="M389.801 663.104C324.652 595.949 253.534 535.004 192.059 464.3C164.15 432.211 134.679 401.903 104.198 372.26C67.9295 336.96 29.1866 304.361 -5.6529 267.65" stroke="url(#paint3_linear_7_129)" stroke-width="1.9009" stroke-miterlimit="10"/>
<path d="M395.109 657.796C329.775 590.305 256.702 531.376 197.345 458.226C170.527 425.18 141.812 394.534 110.956 365.191C74.3153 330.339 34.4233 299.141 -0.344864 262.342" stroke="url(#paint4_linear_7_129)" stroke-width="1.9009" stroke-miterlimit="10"/>
<path d="M400.418 652.487C334.677 584.656 259.585 528.006 202.644 451.995C177.366 418.081 149.031 386.552 117.994 357.807C80.8687 323.491 39.7909 293.816 4.94269 257.012" stroke="url(#paint5_linear_7_129)" stroke-width="1.9009" stroke-miterlimit="10"/>
<path d="M405.73 647.175C370.116 610.583 330.378 578.561 293.118 543.757C260.772 513.544 232.965 482.167 207.957 445.648C183.774 410.329 157.294 378.767 125.3 350.167C87.614 316.486 45.2954 288.454 10.276 251.721" stroke="url(#paint6_linear_7_129)" stroke-width="1.9009" stroke-miterlimit="10"/>
<path d="M411.039 641.866C375.014 605.048 334.196 573.609 296.253 538.91C263.237 508.72 236.771 477.153 213.221 439.158C190.555 402.548 165.545 370.483 132.752 342.262C94.3931 309.253 50.8383 283.02 15.5511 246.412" stroke="url(#paint7_linear_7_129)" stroke-width="1.9009" stroke-miterlimit="10"/>
<path d="M416.352 636.554C379.828 599.571 337.939 568.716 299.258 534.132C283.095 519.641 266.45 504.625 252.949 487.564C239.449 470.503 229.024 451.475 218.548 432.573C197.517 394.605 174.177 362.011 140.437 334.156C101.364 301.905 56.5484 277.554 20.8969 241.1" stroke="url(#paint8_linear_7_129)" stroke-width="1.9009" stroke-miterlimit="10"/>
<path d="M421.66 631.246C384.587 594.064 341.577 563.819 302.11 529.367C285.721 515.06 268.911 500.081 255.896 482.553C242.881 465.023 233.392 445.368 223.845 425.907C204.562 386.561 183.055 353.35 148.228 325.896C108.394 294.422 62.3047 272.066 26.2054 235.791" stroke="url(#paint9_linear_7_129)" stroke-width="1.9009" stroke-miterlimit="10"/>
<path d="M426.973 625.933C389.3 588.57 345.152 558.942 304.868 524.627C288.245 510.461 271.277 495.584 258.759 477.54C246.241 459.496 237.727 439.203 229.142 419.183C211.691 378.483 192.118 344.623 156.114 317.514C115.452 286.884 68.1279 266.57 31.5183 230.478" stroke="url(#paint10_linear_7_129)" stroke-width="1.9009" stroke-miterlimit="10"/>
<path d="M432.281 620.624C393.984 583.072 348.69 554.078 307.56 519.895C290.677 505.864 273.562 491.123 261.563 472.536C249.563 453.948 242.066 432.975 234.435 412.421C218.899 370.418 201.344 335.784 164.059 309.057C122.524 279.284 73.9889 261.053 36.8268 225.17" stroke="url(#paint11_linear_7_129)" stroke-width="1.9009" stroke-miterlimit="10"/>
<path d="M437.589 615.316C398.651 577.573 352.206 549.209 310.213 515.159C293.059 501.248 275.803 486.667 264.329 467.511C252.856 448.355 246.338 426.731 239.728 405.634C226.15 362.437 210.653 326.885 172.029 300.567C129.633 271.672 79.8877 255.583 42.1349 219.862" stroke="url(#paint12_linear_7_129)" stroke-width="1.9009" stroke-miterlimit="10"/>
<path d="M442.902 610.003C403.306 572.079 355.743 544.354 312.905 510.444C295.449 496.633 278.076 482.244 267.133 462.516C256.191 442.787 250.663 420.507 245.003 398.846C239.584 378.162 234.315 357.076 224.35 337.991C214.052 318.264 198.502 304.068 179.99 292.076C136.733 264.059 85.8532 250.096 47.4477 214.549" stroke="url(#paint13_linear_7_129)" stroke-width="1.9009" stroke-miterlimit="10"/>
<path d="M448.219 604.687C407.99 566.565 359.288 539.457 315.63 505.704C297.877 491.98 280.378 477.792 269.95 457.516C259.522 437.24 255.032 414.275 250.309 392.122C245.789 370.942 241.473 349.272 232.035 329.592C222.285 309.268 206.902 295.365 187.922 283.674C143.8 256.489 91.8062 244.655 52.7643 209.232" stroke="url(#paint14_linear_7_129)" stroke-width="1.9009" stroke-miterlimit="10"/>
<path d="M453.523 599.382C412.686 561.053 362.885 534.576 318.418 500.96C300.376 487.324 282.748 473.332 272.846 452.496C262.869 431.526 259.412 408.022 255.597 385.398C251.944 363.737 248.565 341.499 239.649 321.247C230.451 300.346 215.215 286.715 195.749 275.309C150.808 248.976 97.7389 239.243 58.0434 203.903" stroke="url(#paint15_linear_7_129)" stroke-width="1.9009" stroke-miterlimit="10"/>
<path d="M458.831 594.074C417.399 555.543 366.564 529.671 321.323 496.183C303.013 482.629 285.243 468.822 275.843 447.485C266.354 425.949 263.86 401.853 260.907 378.778C258.078 356.671 255.607 333.895 247.167 313.05C238.495 291.638 223.382 278.23 203.506 267.133C157.758 241.581 103.663 233.898 63.3766 198.62" stroke="url(#paint16_linear_7_129)" stroke-width="1.9009" stroke-miterlimit="10"/>
<path d="M464.144 588.762C422.179 550.015 370.328 524.731 324.379 491.372C305.822 477.906 287.897 464.245 278.969 442.469C269.902 420.369 268.337 395.722 266.204 372.23C264.119 349.672 262.532 326.408 254.543 305.01C246.381 283.139 231.331 269.903 211.076 259.094C164.604 234.29 109.524 228.599 68.6643 193.282" stroke="url(#paint17_linear_7_129)" stroke-width="1.9009" stroke-miterlimit="10"/>
<path d="M469.452 583.453C427.009 544.455 374.234 519.785 327.615 486.524C308.857 473.15 290.74 459.589 282.251 437.448C273.564 414.826 272.898 389.641 271.498 365.795C270.179 342.891 269.385 319.126 261.806 297.218C254.109 274.967 239.067 261.839 218.493 251.306C171.353 227.172 115.34 223.389 73.998 187.999" stroke="url(#paint18_linear_7_129)" stroke-width="1.9009" stroke-miterlimit="10"/>
<path d="M474.76 578.145C431.948 538.911 378.27 514.792 331.068 481.626C312.16 468.344 293.846 454.862 285.729 432.425C277.364 409.331 277.492 383.678 276.799 359.486C276.133 336.248 276.097 312.045 268.856 289.681C261.573 267.141 246.481 254.048 225.661 243.777C177.932 220.233 121.046 218.253 79.306 182.691" stroke="url(#paint19_linear_7_129)" stroke-width="1.9009" stroke-miterlimit="10"/>
<path d="M480.073 572.832C436.972 533.326 382.469 509.761 334.769 476.675C315.756 463.513 297.241 450.014 289.426 427.394C281.29 403.868 282.176 377.794 282.098 353.297C282.017 329.768 282.668 305.164 275.723 282.386C268.779 259.608 253.578 246.522 232.608 236.503C184.381 213.439 126.657 213.154 84.6271 177.353" stroke="url(#paint20_linear_7_129)" stroke-width="1.9009" stroke-miterlimit="10"/>
<path d="M485.382 567.524C442.083 527.702 386.86 504.69 338.758 471.661C319.746 458.6 300.942 445.063 293.382 422.364C285.434 398.532 286.964 372.041 287.405 347.344C287.822 323.577 289.092 298.638 282.344 275.506C275.697 252.716 260.273 239.449 239.227 229.623C190.616 206.926 132.1 208.215 89.9149 172.057" stroke="url(#paint21_linear_7_129)" stroke-width="1.9009" stroke-miterlimit="10"/>
<path d="M490.694 562.211C447.361 522.088 391.457 499.564 343.07 466.568C324.104 453.629 305.019 439.969 297.614 417.325C289.741 393.242 291.84 366.409 292.708 341.554C293.544 317.603 295.328 292.343 288.684 268.98C282.238 246.25 266.526 232.761 245.543 223.123C196.639 200.66 137.414 203.388 95.2271 166.753" stroke="url(#paint22_linear_7_129)" stroke-width="1.9009" stroke-miterlimit="10"/>
<path d="M496.003 556.903C452.761 516.428 396.288 494.389 347.738 461.404C328.928 448.621 309.511 434.739 302.169 412.274C294.259 388.053 296.805 360.932 298.016 335.976C299.174 311.914 301.385 286.429 294.732 262.856C288.396 240.327 272.293 226.523 251.495 217.036C202.475 194.699 142.527 198.678 100.548 161.448" stroke="url(#paint23_linear_7_129)" stroke-width="1.9009" stroke-miterlimit="10"/>
<path d="M501.303 551.603C458.203 510.936 401.514 489.214 352.955 456.238C334.257 443.543 314.648 429.51 307.315 407.196C299.337 382.925 302.046 355.64 303.329 330.647C304.57 306.526 306.898 280.899 300.258 257.314C293.943 234.956 277.634 220.98 257.012 211.561C207.983 189.224 147.735 193.73 105.878 156.152" stroke="url(#paint24_linear_7_129)" stroke-width="1.9009" stroke-miterlimit="10"/>
<path d="M506.623 546.282C463.654 505.82 407.325 484.259 358.968 451.426C340.199 438.685 320.728 424.723 313.382 402.329C305.404 378.008 307.812 350.723 308.838 325.642C309.825 301.44 311.863 275.792 305.177 252.143C298.836 229.718 282.771 215.969 262.062 206.52C213.066 184.15 153.114 188.141 111.182 150.857" stroke="url(#paint25_linear_7_129)" stroke-width="1.9009" stroke-miterlimit="10"/>
<path d="M511.932 540.974C469.223 500.856 413.447 479.548 365.438 446.97C346.619 434.195 327.337 420.28 319.916 397.879C311.849 373.502 313.855 346.183 314.533 320.979C315.184 296.668 316.854 270.969 310.05 247.278C303.601 224.82 287.754 211.213 267.002 201.68C218.102 179.214 158.468 182.594 116.477 145.52" stroke="url(#paint26_linear_7_129)" stroke-width="1.9009" stroke-miterlimit="10"/>
<path d="M517.244 535.661C474.955 495.98 419.842 475.041 372.333 442.822C353.48 430.038 334.441 416.148 326.886 393.789C318.631 369.349 320.155 341.965 320.41 316.614C320.662 292.173 321.872 266.396 314.866 242.647C308.245 220.193 292.578 206.657 271.793 197.015C223.044 174.398 163.722 177.131 121.79 140.207" stroke="url(#paint27_linear_7_129)" stroke-width="1.9009" stroke-miterlimit="10"/>
<path d="M522.553 530.352C480.814 491.197 426.501 470.716 379.618 438.955C360.743 426.167 341.976 412.29 334.238 390.03C325.723 365.523 326.689 338.05 326.453 312.526C326.229 287.924 326.918 262.047 319.636 238.238C312.78 215.816 297.264 202.282 276.462 192.506C227.905 169.696 168.929 171.696 127.099 134.898" stroke="url(#paint28_linear_7_129)" stroke-width="1.9009" stroke-miterlimit="10"/>
<path d="M527.865 525.04C486.798 486.48 433.379 466.559 387.229 435.331C368.36 422.564 349.89 408.667 341.929 386.553C333.079 361.978 333.421 334.391 332.62 308.694C331.862 283.953 332.028 257.869 324.348 234.038C317.128 211.679 301.851 198.107 280.989 188.172C232.662 165.049 174.066 166.291 132.411 129.586" stroke="url(#paint29_linear_7_129)" stroke-width="1.9009" stroke-miterlimit="10"/>
<path d="M533.174 519.732C492.857 481.856 440.457 462.545 395.13 431.922C376.278 419.18 358.126 405.25 349.893 383.341C340.653 358.686 340.317 330.971 338.925 305.043C337.584 280.112 337.104 253.901 329.026 229.982C321.492 207.709 306.29 194.028 285.457 183.905C237.386 160.51 179.164 160.916 137.719 124.278" stroke="url(#paint30_linear_7_129)" stroke-width="1.9009" stroke-miterlimit="10"/>
<path d="M538.503 514.402C499.026 477.257 447.718 458.626 403.313 428.676C384.54 416.014 366.581 401.975 358.173 380.301C348.577 355.473 347.423 327.752 345.398 301.559C343.429 276.426 342.274 250.058 333.739 226.057C325.858 203.89 310.697 190.05 289.914 179.725C242.064 156.042 184.251 155.611 143.049 118.948" stroke="url(#paint31_linear_7_129)" stroke-width="1.9009" stroke-miterlimit="10"/>
<path d="M543.795 509.111C505.216 472.747 455.073 454.856 411.646 425.615C392.92 413.008 375.265 398.924 366.586 377.479C356.499 352.554 354.604 324.668 351.857 298.239C349.205 272.873 347.325 246.315 338.309 222.251C330.059 200.217 314.91 186.181 294.157 175.668C246.703 151.621 189.295 150.315 148.319 113.644" stroke="url(#paint32_linear_7_129)" stroke-width="1.9009" stroke-miterlimit="10"/>
<path d="M549.103 503.802C511.477 468.249 462.559 451.14 420.156 422.656C401.488 410.107 384.157 395.935 375.184 374.775C364.574 349.744 361.895 321.685 358.402 295.002C355.075 269.438 352.457 242.737 342.917 218.542C334.282 196.64 319.117 182.377 298.421 171.655C251.294 147.248 194.319 145.022 153.628 108.327" stroke="url(#paint33_linear_7_129)" stroke-width="1.9009" stroke-miterlimit="10"/>
<path d="M554.416 498.49C517.763 463.777 470.12 447.483 428.779 419.768C410.178 407.302 393.152 393.027 383.896 372.168C372.736 347.022 369.261 318.794 365.039 291.892C360.991 266.109 357.615 239.234 347.534 214.925C338.509 193.177 323.302 178.663 302.668 167.727C255.892 142.936 199.351 139.78 158.961 103.036" stroke="url(#paint34_linear_7_129)" stroke-width="1.9009" stroke-miterlimit="10"/>
<path d="M559.724 493.181C524.071 459.316 477.712 443.905 437.486 416.921C418.969 404.506 402.228 390.165 392.683 369.61C380.962 344.346 376.674 315.932 371.688 288.794C366.915 262.787 362.764 235.738 352.125 211.315C342.717 189.718 327.449 174.935 306.883 163.789C260.465 138.606 204.354 134.5 164.278 97.7184" stroke="url(#paint35_linear_7_129)" stroke-width="1.9009" stroke-miterlimit="10"/>
<path d="M565.037 487.868C530.369 454.873 485.34 440.29 446.163 414.137C427.726 401.811 411.249 387.349 401.449 367.107C389.162 341.713 384.065 313.125 378.313 285.755C367.917 236.269 358.736 186.384 311.055 159.903C264.997 134.326 209.36 129.267 169.565 92.4397" stroke="url(#paint36_linear_7_129)" stroke-width="1.9009" stroke-miterlimit="10"/>
<path d="M570.345 482.56C536.677 450.405 492.951 436.666 454.874 411.287C436.521 399.053 420.29 384.462 410.249 364.538C397.391 339.008 391.494 310.247 384.979 282.648C373.26 233.076 362.775 182.95 315.272 155.954C269.582 129.984 214.364 124.004 174.891 87.1061" stroke="url(#paint37_linear_7_129)" stroke-width="1.9009" stroke-miterlimit="10"/>
<path d="M575.654 477.252C542.946 445.923 500.53 433.017 463.501 408.403C445.236 396.265 429.215 381.548 418.96 361.93C405.546 336.261 398.847 307.317 391.591 279.512C378.627 229.9 366.831 179.516 319.503 152C274.164 125.654 219.375 118.749 180.199 81.7975" stroke="url(#paint38_linear_7_129)" stroke-width="1.9009" stroke-miterlimit="10"/>
<path d="M580.966 471.939C549.173 441.408 508.033 429.309 472.003 405.426C453.821 393.381 437.997 378.543 427.541 359.21C413.587 333.4 406.138 304.3 398.127 276.292C383.961 226.648 370.937 176.005 323.738 147.992C278.745 121.283 224.407 113.448 185.487 76.4763" stroke="url(#paint39_linear_7_129)" stroke-width="1.9009" stroke-miterlimit="10"/>
<path d="M586.274 466.631C555.342 436.86 515.435 425.526 480.361 402.357C434.514 372.059 420.074 323.018 404.642 272.96C389.311 223.28 375.156 172.417 328.069 143.922C283.394 116.869 229.493 108.16 190.807 71.164" stroke="url(#paint40_linear_7_129)" stroke-width="1.9009" stroke-miterlimit="10"/>
<path d="M591.587 461.318C561.44 432.257 522.702 421.651 488.519 399.128C442.781 368.999 427.45 319.142 411.068 269.506C394.687 219.869 379.433 168.752 332.458 139.784C288.076 112.406 234.588 102.831 196.133 65.8638" stroke="url(#paint41_linear_7_129)" stroke-width="1.9009" stroke-miterlimit="10"/>
<path d="M596.895 456.01C567.453 427.587 529.811 417.649 496.424 395.723C450.758 365.723 434.6 315.09 417.373 265.862C399.994 216.173 383.806 164.925 336.939 135.555C292.842 107.917 239.779 97.539 201.458 60.5725" stroke="url(#paint42_linear_7_129)" stroke-width="1.9009" stroke-miterlimit="10"/>
<path d="M602.208 450.697C573.374 422.85 536.722 413.508 504.044 392.099C458.424 362.213 441.532 310.879 423.56 262.009C405.289 212.323 388.254 160.888 341.462 131.149C297.607 103.277 244.932 92.0922 206.754 55.2429" stroke="url(#paint43_linear_7_129)" stroke-width="1.9009" stroke-miterlimit="10"/>
<path d="M607.517 445.389C579.178 418.028 543.403 409.204 511.32 388.232C465.743 358.446 448.224 306.469 429.604 257.922C410.546 208.283 392.874 156.696 346.111 126.627C302.451 98.5588 250.14 86.6658 212.025 49.8966" stroke="url(#paint44_linear_7_129)" stroke-width="1.9009" stroke-miterlimit="10"/>
<path d="M612.825 440.08C598.104 425.873 581.033 414.326 562.376 405.956C547.39 399.113 532.078 393.123 518.219 384.087C472.671 354.372 454.654 301.838 435.481 253.565C415.794 204.017 397.598 152.249 350.91 121.996C307.427 93.7772 255.457 81.2651 217.371 44.6258" stroke="url(#paint45_linear_7_129)" stroke-width="1.9009" stroke-miterlimit="10"/>
<path d="M618.138 434.768C603.544 420.636 586.587 409.171 568.044 400.901C553.323 394.271 538.276 388.47 524.681 379.615C479.154 349.971 460.783 296.95 441.172 248.89C421.008 199.467 402.501 147.522 355.863 117.152C312.471 88.8663 260.798 75.7559 222.675 39.3051" stroke="url(#paint46_linear_7_129)" stroke-width="1.9009" stroke-miterlimit="10"/>
<path d="M623.446 429.459C608.906 415.356 591.995 403.926 573.496 395.702C558.95 389.214 544.113 383.557 530.69 374.823C485.192 345.209 466.62 291.794 446.673 243.901C426.154 194.632 407.509 142.532 360.971 112.145C317.626 83.8468 266.236 70.2172 228.004 34.0175" stroke="url(#paint47_linear_7_129)" stroke-width="1.9009" stroke-miterlimit="10"/>
<path d="M628.758 424.147C614.154 410.115 597.25 398.695 578.791 390.389C564.275 383.84 549.48 378.098 536.069 369.36C490.702 339.809 472.07 286.285 451.952 238.588C431.261 189.474 412.561 137.336 366.091 106.991C322.775 78.7222 271.694 64.5326 233.287 28.6757" stroke="url(#paint48_linear_7_129)" stroke-width="1.9009" stroke-miterlimit="10"/>
<path d="M634.066 418.839C619.351 404.874 602.456 393.407 584.053 384.892C569.507 378.129 554.665 372.132 541.187 363.294C496.117 333.747 477.335 280.583 457.013 233.141C436.088 184.286 417.251 132.42 371.031 102.134C327.795 73.803 277.123 58.9273 238.612 23.3846" stroke="url(#paint49_linear_7_129)" stroke-width="1.9009" stroke-miterlimit="10"/>
<path d="M639.375 413.53C611.525 387.436 577.259 377.413 546.217 356.828C501.532 327.191 482.513 274.734 461.898 227.576C440.722 179.064 421.61 127.776 375.772 97.4948C332.698 69.0341 282.46 53.3799 243.921 18.0759" stroke="url(#paint50_linear_7_129)" stroke-width="1.9009" stroke-miterlimit="10"/>
<path d="M644.671 408.235C616.67 382.073 582.251 370.986 551.127 349.994C506.941 320.186 487.535 268.797 466.581 221.927C445.084 173.846 425.617 123.407 380.286 93.0898C337.451 64.4665 287.734 47.9461 249.216 12.7803" stroke="url(#paint51_linear_7_129)" stroke-width="1.9009" stroke-miterlimit="10"/>
<path d="M649.996 402.909C621.781 376.55 587.188 364.268 555.975 342.779C512.366 312.754 492.52 262.662 471.131 216.135C449.283 168.582 429.366 119.197 384.658 88.8262C342.129 59.9312 292.93 42.4822 254.529 7.43394" stroke="url(#paint52_linear_7_129)" stroke-width="1.9009" stroke-miterlimit="10"/>
<path d="M655.309 397.597C626.896 370.999 592.103 357.405 560.772 335.321C517.816 305.046 497.399 256.398 475.558 210.323C453.309 163.388 432.859 115.233 388.893 84.7936C346.723 55.5972 298.087 37.1401 259.854 2.14249" stroke="url(#paint53_linear_7_129)" stroke-width="1.9009" stroke-miterlimit="10"/>
<path d="M660.617 392.289C631.969 365.313 596.959 350.366 565.484 327.594C523.253 297.066 502.206 249.987 479.847 204.421C457.198 158.223 436.131 111.383 392.982 80.8819C351.183 51.3135 303.186 31.8231 265.163 -3.16574" stroke="url(#paint54_linear_7_129)" stroke-width="1.9009" stroke-miterlimit="10"/>
<path d="M665.929 386.976C636.958 359.56 601.79 343.159 570.13 319.641C528.706 288.859 506.933 243.42 484.035 198.436C460.911 153.024 439.185 107.657 396.952 77.0781C355.564 47.1005 308.23 26.5349 270.458 -8.49523" stroke="url(#paint55_linear_7_129)" stroke-width="1.9009" stroke-miterlimit="10"/>
<path d="M671.238 381.667C641.935 353.752 606.596 335.885 574.732 311.545C534.154 280.539 511.619 236.728 488.119 192.455C464.51 147.946 442.08 104.048 400.832 73.4006C359.886 42.9794 313.25 21.3055 275.75 -13.7953" stroke="url(#paint56_linear_7_129)" stroke-width="1.9009" stroke-miterlimit="10"/>
<path d="M676.546 376.359C646.907 347.899 611.435 328.519 579.356 303.303C539.665 272.114 516.279 229.927 492.216 186.419C468.152 142.911 444.925 100.49 404.707 69.8024C364.225 38.9173 318.311 16.1097 281.096 -19.091" stroke="url(#paint57_linear_7_129)" stroke-width="1.9009" stroke-miterlimit="10"/>
<path d="M681.872 371.034C651.85 341.956 616.257 321.085 583.933 294.964C545.168 263.631 520.897 222.975 496.228 180.324C471.652 137.833 447.644 96.922 408.486 66.2158C368.473 34.8631 323.302 10.9008 286.417 -24.4207" stroke="url(#paint58_linear_7_129)" stroke-width="1.9009" stroke-miterlimit="10"/>
<path d="M687.167 365.738C656.746 336.011 621.05 313.648 588.472 286.596C550.646 255.173 525.46 215.952 500.215 174.272C475.147 132.885 450.309 93.4345 412.249 62.7142C372.737 30.8594 328.343 5.75121 291.713 -29.7163" stroke="url(#paint59_linear_7_129)" stroke-width="1.9009" stroke-miterlimit="10"/>
</g>
<defs>
<linearGradient id="paint0_linear_7_129" x1="176.09" y1="481.362" x2="176.161" y2="481.29" gradientUnits="userSpaceOnUse">
<stop stop-color="#F1D881"/>
<stop offset="0.260417" stop-color="#F7884A"/>
<stop offset="1" stop-color="#4E22AD"/>
</linearGradient>
<linearGradient id="paint1_linear_7_129" x1="287.238" y1="576.453" x2="109.161" y2="404.439" gradientUnits="userSpaceOnUse">
<stop stop-color="#F1D881"/>
<stop offset="0.260417" stop-color="#F7884A"/>
<stop offset="0.722679" stop-color="#4E22AD"/>
</linearGradient>
<linearGradient id="paint2_linear_7_129" x1="185.926" y1="471.526" x2="187.911" y2="469.54" gradientUnits="userSpaceOnUse">
<stop stop-color="#F1D881"/>
<stop offset="0.260417" stop-color="#F7884A"/>
<stop offset="1" stop-color="#4E22AD"/>
</linearGradient>
<linearGradient id="paint3_linear_7_129" x1="190.638" y1="466.813" x2="194.841" y2="462.611" gradientUnits="userSpaceOnUse">
<stop stop-color="#F1D881"/>
<stop offset="0.260417" stop-color="#F7884A"/>
<stop offset="1" stop-color="#4E22AD"/>
</linearGradient>
<linearGradient id="paint4_linear_7_129" x1="195.226" y1="462.226" x2="201.853" y2="455.598" gradientUnits="userSpaceOnUse">
<stop stop-color="#F1D881"/>
<stop offset="0.260417" stop-color="#F7884A"/>
<stop offset="1" stop-color="#4E22AD"/>
</linearGradient>
<linearGradient id="paint5_linear_7_129" x1="199.676" y1="457.754" x2="209.167" y2="448.263" gradientUnits="userSpaceOnUse">
<stop stop-color="#F1D881"/>
<stop offset="0.260417" stop-color="#F7884A"/>
<stop offset="1" stop-color="#4E22AD"/>
</linearGradient>
<linearGradient id="paint6_linear_7_129" x1="203.114" y1="454.338" x2="216.812" y2="440.64" gradientUnits="userSpaceOnUse">
<stop stop-color="#F1D881"/>
<stop offset="0.260417" stop-color="#F7884A"/>
<stop offset="1" stop-color="#4E22AD"/>
</linearGradient>
<linearGradient id="paint7_linear_7_129" x1="207.015" y1="450.42" x2="224.656" y2="432.779" gradientUnits="userSpaceOnUse">
<stop stop-color="#F1D881"/>
<stop offset="0.260417" stop-color="#F7884A"/>
<stop offset="1" stop-color="#4E22AD"/>
</linearGradient>
<linearGradient id="paint8_linear_7_129" x1="210.357" y1="447.095" x2="232.754" y2="424.698" gradientUnits="userSpaceOnUse">
<stop stop-color="#F1D881"/>
<stop offset="0.260417" stop-color="#F7884A"/>
<stop offset="1" stop-color="#4E22AD"/>
</linearGradient>
<linearGradient id="paint9_linear_7_129" x1="214" y1="443.451" x2="241.003" y2="416.449" gradientUnits="userSpaceOnUse">
<stop stop-color="#F1D881"/>
<stop offset="0.260417" stop-color="#F7884A"/>
<stop offset="1" stop-color="#4E22AD"/>
</linearGradient>
<linearGradient id="paint10_linear_7_129" x1="217.587" y1="439.865" x2="249.361" y2="408.091" gradientUnits="userSpaceOnUse">
<stop stop-color="#F1D881"/>
<stop offset="0.260417" stop-color="#F7884A"/>
<stop offset="1" stop-color="#4E22AD"/>
</linearGradient>
<linearGradient id="paint11_linear_7_129" x1="221.124" y1="436.328" x2="257.81" y2="399.642" gradientUnits="userSpaceOnUse">
<stop stop-color="#F1D881"/>
<stop offset="0.260417" stop-color="#F7884A"/>
<stop offset="1" stop-color="#4E22AD"/>
</linearGradient>
<linearGradient id="paint12_linear_7_129" x1="224.642" y1="432.81" x2="266.299" y2="391.153" gradientUnits="userSpaceOnUse">
<stop stop-color="#F1D881"/>
<stop offset="0.260417" stop-color="#F7884A"/>
<stop offset="1" stop-color="#4E22AD"/>
</linearGradient>
<linearGradient id="paint13_linear_7_129" x1="228.162" y1="429.29" x2="275.285" y2="382.167" gradientUnits="userSpaceOnUse">
<stop stop-color="#F1D881"/>
<stop offset="0.260417" stop-color="#F7884A"/>
<stop offset="1" stop-color="#4E22AD"/>
</linearGradient>
<linearGradient id="paint14_linear_7_129" x1="231.712" y1="425.74" x2="283.748" y2="373.703" gradientUnits="userSpaceOnUse">
<stop stop-color="#F1D881"/>
<stop offset="0.260417" stop-color="#F7884A"/>
<stop offset="1" stop-color="#4E22AD"/>
</linearGradient>
<linearGradient id="paint15_linear_7_129" x1="235.287" y1="422.139" x2="292.13" y2="365.296" gradientUnits="userSpaceOnUse">
<stop stop-color="#F1D881"/>
<stop offset="0.260417" stop-color="#F7884A"/>
<stop offset="1" stop-color="#4E22AD"/>
</linearGradient>
<linearGradient id="paint16_linear_7_129" x1="238.969" y1="418.483" x2="300.384" y2="357.068" gradientUnits="userSpaceOnUse">
<stop stop-color="#F1D881"/>
<stop offset="0.260417" stop-color="#F7884A"/>
<stop offset="1" stop-color="#4E22AD"/>
</linearGradient>
<linearGradient id="paint17_linear_7_129" x1="242.725" y1="414.701" x2="308.434" y2="348.991" gradientUnits="userSpaceOnUse">
<stop stop-color="#F1D881"/>
<stop offset="0.260417" stop-color="#F7884A"/>
<stop offset="1" stop-color="#4E22AD"/>
</linearGradient>
<linearGradient id="paint18_linear_7_129" x1="246.628" y1="410.824" x2="316.282" y2="341.169" gradientUnits="userSpaceOnUse">
<stop stop-color="#F1D881"/>
<stop offset="0.260417" stop-color="#F7884A"/>
<stop offset="1" stop-color="#4E22AD"/>
</linearGradient>
<linearGradient id="paint19_linear_7_129" x1="250.67" y1="406.782" x2="323.83" y2="333.622" gradientUnits="userSpaceOnUse">
<stop stop-color="#F1D881"/>
<stop offset="0.260417" stop-color="#F7884A"/>
<stop offset="1" stop-color="#4E22AD"/>
</linearGradient>
<linearGradient id="paint20_linear_7_129" x1="254.878" y1="402.566" x2="331.105" y2="326.338" gradientUnits="userSpaceOnUse">
<stop stop-color="#F1D881"/>
<stop offset="0.260417" stop-color="#F7884A"/>
<stop offset="1" stop-color="#4E22AD"/>
</linearGradient>
<linearGradient id="paint21_linear_7_129" x1="259.29" y1="398.149" x2="337.961" y2="319.478" gradientUnits="userSpaceOnUse">
<stop stop-color="#F1D881"/>
<stop offset="0.260417" stop-color="#F7884A"/>
<stop offset="1" stop-color="#4E22AD"/>
</linearGradient>
<linearGradient id="paint22_linear_7_129" x1="263.926" y1="393.517" x2="344.434" y2="313.009" gradientUnits="userSpaceOnUse">
<stop stop-color="#F1D881"/>
<stop offset="0.260417" stop-color="#F7884A"/>
<stop offset="1" stop-color="#4E22AD"/>
</linearGradient>
<linearGradient id="paint23_linear_7_129" x1="268.809" y1="388.643" x2="350.466" y2="306.985" gradientUnits="userSpaceOnUse">
<stop stop-color="#F1D881"/>
<stop offset="0.260417" stop-color="#F7884A"/>
<stop offset="1" stop-color="#4E22AD"/>
</linearGradient>
<linearGradient id="paint24_linear_7_129" x1="273.998" y1="383.47" x2="355.941" y2="301.526" gradientUnits="userSpaceOnUse">
<stop stop-color="#F1D881"/>
<stop offset="0.260417" stop-color="#F7884A"/>
<stop offset="1" stop-color="#4E22AD"/>
</linearGradient>
<linearGradient id="paint25_linear_7_129" x1="279.425" y1="378.047" x2="361.007" y2="296.465" gradientUnits="userSpaceOnUse">
<stop stop-color="#F1D881"/>
<stop offset="0.260417" stop-color="#F7884A"/>
<stop offset="1" stop-color="#4E22AD"/>
</linearGradient>
<linearGradient id="paint26_linear_7_129" x1="284.903" y1="372.549" x2="365.855" y2="291.597" gradientUnits="userSpaceOnUse">
<stop stop-color="#F1D881"/>
<stop offset="0.260417" stop-color="#F7884A"/>
<stop offset="1" stop-color="#4E22AD"/>
</linearGradient>
<linearGradient id="paint27_linear_7_129" x1="290.458" y1="366.993" x2="370.534" y2="286.918" gradientUnits="userSpaceOnUse">
<stop stop-color="#F1D881"/>
<stop offset="0.260417" stop-color="#F7884A"/>
<stop offset="1" stop-color="#4E22AD"/>
</linearGradient>
<linearGradient id="paint28_linear_7_129" x1="296.076" y1="361.376" x2="375.051" y2="282.401" gradientUnits="userSpaceOnUse">
<stop stop-color="#F1D881"/>
<stop offset="0.260417" stop-color="#F7884A"/>
<stop offset="1" stop-color="#4E22AD"/>
</linearGradient>
<linearGradient id="paint29_linear_7_129" x1="301.744" y1="355.708" x2="379.396" y2="278.056" gradientUnits="userSpaceOnUse">
<stop stop-color="#F1D881"/>
<stop offset="0.260417" stop-color="#F7884A"/>
<stop offset="1" stop-color="#4E22AD"/>
</linearGradient>
<linearGradient id="paint30_linear_7_129" x1="307.454" y1="349.998" x2="383.648" y2="273.803" gradientUnits="userSpaceOnUse">
<stop stop-color="#F1D881"/>
<stop offset="0.260417" stop-color="#F7884A"/>
<stop offset="1" stop-color="#4E22AD"/>
</linearGradient>
<linearGradient id="paint31_linear_7_129" x1="313.219" y1="344.233" x2="387.836" y2="269.616" gradientUnits="userSpaceOnUse">
<stop stop-color="#F1D881"/>
<stop offset="0.260417" stop-color="#F7884A"/>
<stop offset="1" stop-color="#4E22AD"/>
</linearGradient>
<linearGradient id="paint32_linear_7_129" x1="318.96" y1="338.474" x2="391.862" y2="265.573" gradientUnits="userSpaceOnUse">
<stop stop-color="#F1D881"/>
<stop offset="0.260417" stop-color="#F7884A"/>
<stop offset="1" stop-color="#4E22AD"/>
</linearGradient>
<linearGradient id="paint33_linear_7_129" x1="324.76" y1="332.67" x2="395.863" y2="261.568" gradientUnits="userSpaceOnUse">
<stop stop-color="#F1D881"/>
<stop offset="0.260417" stop-color="#F7884A"/>
<stop offset="1" stop-color="#4E22AD"/>
</linearGradient>
<linearGradient id="paint34_linear_7_129" x1="330.585" y1="326.867" x2="399.823" y2="257.629" gradientUnits="userSpaceOnUse">
<stop stop-color="#F1D881"/>
<stop offset="0.260417" stop-color="#F7884A"/>
<stop offset="1" stop-color="#4E22AD"/>
</linearGradient>
<linearGradient id="paint35_linear_7_129" x1="336.427" y1="321.025" x2="403.761" y2="253.691" gradientUnits="userSpaceOnUse">
<stop stop-color="#F1D881"/>
<stop offset="0.260417" stop-color="#F7884A"/>
<stop offset="1" stop-color="#4E22AD"/>
</linearGradient>
<linearGradient id="paint36_linear_7_129" x1="342.216" y1="315.24" x2="407.212" y2="250.244" gradientUnits="userSpaceOnUse">
<stop stop-color="#F1D881"/>
<stop offset="0.260417" stop-color="#F7884A"/>
<stop offset="1" stop-color="#4E22AD"/>
</linearGradient>
<linearGradient id="paint37_linear_7_129" x1="348.049" y1="309.403" x2="411.185" y2="246.267" gradientUnits="userSpaceOnUse">
<stop stop-color="#F1D881"/>
<stop offset="0.260417" stop-color="#F7884A"/>
<stop offset="1" stop-color="#4E22AD"/>
</linearGradient>
<linearGradient id="paint38_linear_7_129" x1="353.852" y1="303.6" x2="415.168" y2="242.283" gradientUnits="userSpaceOnUse">
<stop stop-color="#F1D881"/>
<stop offset="0.260417" stop-color="#F7884A"/>
<stop offset="1" stop-color="#4E22AD"/>
</linearGradient>
<linearGradient id="paint39_linear_7_129" x1="359.628" y1="297.807" x2="419.185" y2="238.25" gradientUnits="userSpaceOnUse">
<stop stop-color="#F1D881"/>
<stop offset="0.260417" stop-color="#F7884A"/>
<stop offset="1" stop-color="#4E22AD"/>
</linearGradient>
<linearGradient id="paint40_linear_7_129" x1="365.808" y1="291.631" x2="423.296" y2="234.143" gradientUnits="userSpaceOnUse">
<stop stop-color="#F1D881"/>
<stop offset="0.260417" stop-color="#F7884A"/>
<stop offset="1" stop-color="#4E22AD"/>
</linearGradient>
<linearGradient id="paint41_linear_7_129" x1="371.488" y1="285.964" x2="427.473" y2="229.979" gradientUnits="userSpaceOnUse">
<stop stop-color="#F1D881"/>
<stop offset="0.260417" stop-color="#F7884A"/>
<stop offset="1" stop-color="#4E22AD"/>
</linearGradient>
<linearGradient id="paint42_linear_7_129" x1="377.133" y1="280.334" x2="431.759" y2="225.709" gradientUnits="userSpaceOnUse">
<stop stop-color="#F1D881"/>
<stop offset="0.260417" stop-color="#F7884A"/>
<stop offset="1" stop-color="#4E22AD"/>
</linearGradient>
<linearGradient id="paint43_linear_7_129" x1="382.729" y1="274.723" x2="436.145" y2="221.306" gradientUnits="userSpaceOnUse">
<stop stop-color="#F1D881"/>
<stop offset="0.260417" stop-color="#F7884A"/>
<stop offset="1" stop-color="#4E22AD"/>
</linearGradient>
<linearGradient id="paint44_linear_7_129" x1="388.267" y1="269.146" x2="440.654" y2="216.759" gradientUnits="userSpaceOnUse">
<stop stop-color="#F1D881"/>
<stop offset="0.260417" stop-color="#F7884A"/>
<stop offset="1" stop-color="#4E22AD"/>
</linearGradient>
<linearGradient id="paint45_linear_7_129" x1="393.799" y1="263.653" x2="445.347" y2="212.105" gradientUnits="userSpaceOnUse">
<stop stop-color="#F1D881"/>
<stop offset="0.260417" stop-color="#F7884A"/>
<stop offset="1" stop-color="#4E22AD"/>
</linearGradient>
<linearGradient id="paint46_linear_7_129" x1="399.255" y1="258.189" x2="450.211" y2="207.232" gradientUnits="userSpaceOnUse">
<stop stop-color="#F1D881"/>
<stop offset="0.260417" stop-color="#F7884A"/>
<stop offset="1" stop-color="#4E22AD"/>
</linearGradient>
<linearGradient id="paint47_linear_7_129" x1="404.671" y1="252.792" x2="455.253" y2="202.21" gradientUnits="userSpaceOnUse">
<stop stop-color="#F1D881"/>
<stop offset="0.260417" stop-color="#F7884A"/>
<stop offset="1" stop-color="#4E22AD"/>
</linearGradient>
<linearGradient id="paint48_linear_7_129" x1="410.094" y1="247.341" x2="460.372" y2="197.063" gradientUnits="userSpaceOnUse">
<stop stop-color="#F1D881"/>
<stop offset="0.260417" stop-color="#F7884A"/>
<stop offset="1" stop-color="#4E22AD"/>
</linearGradient>
<linearGradient id="paint49_linear_7_129" x1="415.737" y1="241.715" x2="465.254" y2="192.197" gradientUnits="userSpaceOnUse">
<stop stop-color="#F1D881"/>
<stop offset="0.260417" stop-color="#F7884A"/>
<stop offset="1" stop-color="#4E22AD"/>
</linearGradient>
<linearGradient id="paint50_linear_7_129" x1="421.549" y1="235.903" x2="469.898" y2="187.553" gradientUnits="userSpaceOnUse">
<stop stop-color="#F1D881"/>
<stop offset="0.260417" stop-color="#F7884A"/>
<stop offset="1" stop-color="#4E22AD"/>
</linearGradient>
<linearGradient id="paint51_linear_7_129" x1="427.506" y1="229.945" x2="474.29" y2="183.162" gradientUnits="userSpaceOnUse">
<stop stop-color="#F1D881"/>
<stop offset="0.260417" stop-color="#F7884A"/>
<stop offset="1" stop-color="#4E22AD"/>
</linearGradient>
<linearGradient id="paint52_linear_7_129" x1="433.631" y1="223.803" x2="478.514" y2="178.92" gradientUnits="userSpaceOnUse">
<stop stop-color="#F1D881"/>
<stop offset="0.260417" stop-color="#F7884A"/>
<stop offset="1" stop-color="#4E22AD"/>
</linearGradient>
<linearGradient id="paint53_linear_7_129" x1="439.881" y1="217.57" x2="482.553" y2="174.899" gradientUnits="userSpaceOnUse">
<stop stop-color="#F1D881"/>
<stop offset="0.260417" stop-color="#F7884A"/>
<stop offset="1" stop-color="#4E22AD"/>
</linearGradient>
<linearGradient id="paint54_linear_7_129" x1="446.223" y1="211.229" x2="486.442" y2="171.01" gradientUnits="userSpaceOnUse">
<stop stop-color="#F1D881"/>
<stop offset="0.260417" stop-color="#F7884A"/>
<stop offset="1" stop-color="#4E22AD"/>
</linearGradient>
<linearGradient id="paint55_linear_7_129" x1="452.647" y1="204.787" x2="490.193" y2="167.242" gradientUnits="userSpaceOnUse">
<stop stop-color="#F1D881"/>
<stop offset="0.260417" stop-color="#F7884A"/>
<stop offset="1" stop-color="#4E22AD"/>
</linearGradient>
<linearGradient id="paint56_linear_7_129" x1="459.128" y1="198.302" x2="493.83" y2="163.601" gradientUnits="userSpaceOnUse">
<stop stop-color="#F1D881"/>
<stop offset="0.260417" stop-color="#F7884A"/>
<stop offset="1" stop-color="#4E22AD"/>
</linearGradient>
<linearGradient id="paint57_linear_7_129" x1="465.705" y1="191.751" x2="497.441" y2="160.015" gradientUnits="userSpaceOnUse">
<stop stop-color="#F1D881"/>
<stop offset="0.260417" stop-color="#F7884A"/>
<stop offset="1" stop-color="#4E22AD"/>
</linearGradient>
<linearGradient id="paint58_linear_7_129" x1="472.293" y1="185.158" x2="500.982" y2="156.47" gradientUnits="userSpaceOnUse">
<stop stop-color="#F1D881"/>
<stop offset="0.260417" stop-color="#F7884A"/>
<stop offset="1" stop-color="#4E22AD"/>
</linearGradient>
<linearGradient id="paint59_linear_7_129" x1="478.873" y1="178.579" x2="504.467" y2="152.984" gradientUnits="userSpaceOnUse">
<stop stop-color="#F1D881"/>
<stop offset="0.260417" stop-color="#F7884A"/>
<stop offset="1" stop-color="#4E22AD"/>
</linearGradient>
</defs>
</svg>
