<svg width="350" height="350" viewBox="0 0 350 350" fill="none" xmlns="http://www.w3.org/2000/svg">
<rect width="350" height="350" rx="32" fill="#04001E"/>
<path d="M267.579 136.988C256.476 136.988 246.949 134.703 238.999 130.134C231.094 125.565 225.017 119.214 220.768 111.081C216.519 102.902 214.394 93.4438 214.394 82.7063C214.394 71.9232 216.519 62.4651 220.768 54.332C225.063 46.1533 231.163 39.7794 239.067 35.2102C247.017 30.6411 256.498 28.3565 267.51 28.3565C277.242 28.3565 285.718 30.1156 292.937 33.6339C300.202 37.1521 305.868 42.1325 309.934 48.5749C314.047 54.9717 316.217 62.4879 316.445 71.1236H285.124C284.484 65.732 282.657 61.5056 279.641 58.4442C276.671 55.3829 272.787 53.8523 267.99 53.8523C264.106 53.8523 260.702 54.9489 257.778 57.142C254.854 59.2895 252.569 62.4879 250.924 66.7372C249.325 70.9408 248.525 76.1496 248.525 82.3636C248.525 88.5776 249.325 93.8321 250.924 98.1271C252.569 102.376 254.854 105.598 257.778 107.791C260.702 109.938 264.106 111.012 267.99 111.012C271.097 111.012 273.838 110.35 276.214 109.025C278.636 107.699 280.623 105.758 282.177 103.199C283.73 100.594 284.713 97.4418 285.124 93.7408H316.445C316.126 102.422 313.955 110.007 309.934 116.495C305.959 122.983 300.362 128.032 293.143 131.642C285.969 135.206 277.448 136.988 267.579 136.988Z" fill="white"/>
<path d="M36.9812 134.735V29.2803H108.966V49.9799H62.4695V71.6063H104.384V92.3574H62.4695V134.735H36.9812Z" fill="white"/>
<path d="M123.584 134.735L92.8947 29.2803H121.061L136.971 98.3819H137.847L156.023 29.2803H178.988L197.165 98.5364H198.04L214.003 29.2803H242.117L211.48 134.735H186.918L167.918 70.7824H167.094L148.094 134.735H123.584Z" fill="white"/>
<path d="M62.6797 205.961H57.25C57.25 212.159 57.3802 218.721 57.6406 225.648C57.6406 225.805 57.7057 225.948 57.8359 226.078C57.9661 226.208 58.1484 226.339 58.3828 226.469C58.6432 226.599 59.0729 226.768 59.6719 226.977C60.2708 227.185 61.4818 227.419 63.3047 227.68C65.1276 227.914 66.1693 228.057 66.4297 228.109C66.8724 229.568 66.7943 231.169 66.1953 232.914C56.5859 232.706 50.7526 232.602 48.6953 232.602C47.2891 232.602 42.3802 232.706 33.9688 232.914C33.3177 231.117 33.3177 229.438 33.9688 227.875C39.6198 227.302 42.4714 226.534 42.5234 225.57C42.8359 219.06 42.9922 210.87 42.9922 201C42.9922 192.615 42.862 185.362 42.6016 179.242C42.5495 178.279 39.6458 177.51 33.8906 176.938C33.3958 175.115 33.4479 173.435 34.0469 171.898C42.0417 172.159 47.3411 172.289 49.9453 172.289H86.1172C86.7682 177.393 88.7995 182.771 92.2109 188.422C91.612 189.672 90.2188 190.688 88.0312 191.469C85.8958 187.589 82.7448 184.359 78.5781 181.781C74.4375 179.177 69.0599 177.875 62.4453 177.875H57.6406C57.3802 187.224 57.25 194.398 57.25 199.398C58.526 199.451 60.362 199.477 62.7578 199.477C64.9453 199.477 66.6901 198.747 67.9922 197.289C69.2943 195.805 70.7266 193.5 72.2891 190.375L73.9688 187.094C76.1562 187.875 77.5365 188.878 78.1094 190.102C75.349 195.076 73.9688 199.164 73.9688 202.367C73.9688 205.831 75.349 209.906 78.1094 214.594C77.4844 215.922 76.1562 216.938 74.125 217.641C73.526 216.833 72.8359 215.609 72.0547 213.969C70.987 212.198 70.1406 210.883 69.5156 210.023C68.8906 209.138 67.9661 208.253 66.7422 207.367C65.5182 206.482 64.1641 206.013 62.6797 205.961ZM51.2344 203.656L62.3672 203.578C63.487 203.578 64.5417 203.76 65.5312 204.125C66.5208 204.49 67.3021 204.867 67.875 205.258C68.474 205.622 69.151 206.339 69.9062 207.406C70.6875 208.474 71.2344 209.255 71.5469 209.75C71.8854 210.219 72.4323 211.208 73.1875 212.719C73.9688 214.229 74.4896 215.206 74.75 215.648C75.5573 215.31 76.0651 214.958 76.2734 214.594C73.6693 209.958 72.3672 205.883 72.3672 202.367C72.3672 200.753 72.7318 198.786 73.4609 196.469C74.2161 194.151 75.1536 192.029 76.2734 190.102C76.1693 189.737 75.6615 189.398 74.75 189.086C74.5417 189.451 74.125 190.232 73.5 191.43C72.901 192.628 72.5104 193.409 72.3281 193.773C72.1458 194.112 71.7682 194.75 71.1953 195.688C70.6484 196.625 70.2057 197.25 69.8672 197.562C69.5547 197.875 69.0859 198.344 68.4609 198.969C67.862 199.568 67.276 199.984 66.7031 200.219C66.1562 200.427 65.5052 200.622 64.75 200.805C63.9948 200.987 63.2005 201.078 62.3672 201.078C57.4974 201.078 53.7865 201.026 51.2344 200.922C51.2344 194.62 51.3906 186.404 51.7031 176.273H62.5234C75.2578 176.273 84.0078 180.674 88.7734 189.477C89.4505 189.216 89.8932 188.865 90.1016 188.422C87.4974 183.109 84.5807 179.359 81.3516 177.172C78.1224 174.984 73.3047 173.891 66.8984 173.891H48.8516C45.5964 173.891 41.026 173.786 35.1406 173.578V175.414C41.1302 175.987 44.151 177.237 44.2031 179.164C44.4635 185.284 44.5938 192.562 44.5938 201C44.5938 209.255 44.4375 217.471 44.125 225.648C44.0729 227.576 41.0521 228.826 35.0625 229.398C34.8542 229.815 34.8542 230.427 35.0625 231.234C39.4896 231.078 44.0339 231 48.6953 231C54.2422 231 59.5677 231.078 64.6719 231.234C64.8802 230.818 64.8802 230.206 64.6719 229.398C56.0781 228.878 51.7292 227.628 51.625 225.648C51.3646 219.503 51.2344 212.172 51.2344 203.656ZM124.594 221.547C124.802 215.036 124.802 208.513 124.594 201.977C124.594 201.065 122.628 200.284 118.695 199.633C118.096 198.044 118.096 196.469 118.695 194.906H135.57C136.299 195.193 136.82 195.505 137.133 195.844C137.471 196.182 137.771 196.677 138.031 197.328C138.031 197.797 137.966 198.539 137.836 199.555C137.706 200.57 137.641 201.378 137.641 201.977C137.38 210.544 137.38 218.005 137.641 224.359C139.516 224.958 141.495 225.31 143.578 225.414C144.151 226.951 144.151 228.604 143.578 230.375C140.167 230.583 135.948 231.755 130.922 233.891C128.083 233.682 125.974 232.823 124.594 231.312V230.297C121.026 232.589 116.794 233.734 111.898 233.734C108.357 233.734 105.844 232.771 104.359 230.844C102.875 228.917 102.107 225.896 102.055 221.781C102.107 215.245 102.107 208.643 102.055 201.977C102.055 201.065 100.076 200.284 96.1172 199.633C95.5443 198.044 95.5443 196.469 96.1172 194.906H113.07C113.826 195.193 114.359 195.505 114.672 195.844C115.01 196.182 115.31 196.677 115.57 197.328C115.57 197.797 115.505 198.539 115.375 199.555C115.245 200.57 115.18 201.378 115.18 201.977C114.997 208.044 114.997 214.229 115.18 220.531C115.284 223.5 115.818 225.232 116.781 225.727C118.682 225.232 121.286 223.839 124.594 221.547ZM126.195 201.977C126.352 208.747 126.352 215.544 126.195 222.367C121.352 225.831 117.615 227.562 114.984 227.562C111.417 227.562 109.633 225.219 109.633 220.531C109.477 214.229 109.477 208.044 109.633 201.977C109.633 201.273 109.698 200.427 109.828 199.438C109.984 198.448 110.062 197.823 110.062 197.562C109.776 196.964 109.398 196.56 108.93 196.352C105.076 196.612 101.234 196.612 97.4062 196.352C97.1979 196.951 97.1979 197.562 97.4062 198.188C101.521 198.839 103.604 200.102 103.656 201.977C103.708 208.591 103.708 215.193 103.656 221.781C103.604 225.323 104.216 227.94 105.492 229.633C106.768 231.299 108.904 232.133 111.898 232.133C115.831 232.133 120.596 229.698 126.195 224.828V230.531C126.404 230.948 126.859 231.286 127.562 231.547C131.286 230.167 136.117 229.242 142.055 228.773C142.263 228.122 142.263 227.51 142.055 226.938C137.576 226.755 134.268 226.221 132.133 225.336C131.924 216.039 131.924 208.253 132.133 201.977C132.133 201.273 132.198 200.427 132.328 199.438C132.458 198.448 132.523 197.823 132.523 197.562C132.263 196.964 131.885 196.56 131.391 196.352C127.615 196.56 123.799 196.56 119.945 196.352C119.737 196.951 119.737 197.562 119.945 198.188C124.06 198.839 126.143 200.102 126.195 201.977ZM162.719 200.219H178.07C178.435 199.203 178.435 198.266 178.07 197.406H162.719V188.852C162.068 188.565 161.417 188.565 160.766 188.852C159.802 190.648 158.734 192.224 157.562 193.578C156.391 194.906 155.401 195.844 154.594 196.391C153.812 196.911 152.68 197.589 151.195 198.422C151.013 198.969 151.013 199.568 151.195 200.219H155.961V220.688C155.961 228.318 159.112 232.133 165.414 232.133C168.096 232.133 170.57 231.443 172.836 230.062C175.102 228.656 176.794 226.938 177.914 224.906C177.68 224.333 177.25 224.021 176.625 223.969C174.177 226.156 171.807 227.25 169.516 227.25C164.984 227.25 162.719 225.193 162.719 221.078V200.219ZM176.156 222.289C177.797 222.497 178.969 223.396 179.672 224.984C178.318 227.458 176.352 229.529 173.773 231.195C171.195 232.888 168.409 233.734 165.414 233.734C158.07 233.734 154.398 229.385 154.398 220.688V201.781H149.594C149.203 200.401 149.203 198.969 149.594 197.484C151.182 196.573 152.393 195.831 153.227 195.258C154.06 194.659 155.102 193.695 156.352 192.367C157.602 191.039 158.708 189.438 159.672 187.562C162.12 186.547 164.971 186.599 168.227 187.719V195.805H179.594C180.427 197.732 180.427 199.724 179.594 201.781H168.227V221.078C168.227 223.578 169.125 225.049 170.922 225.492C172.484 225.154 174.229 224.086 176.156 222.289ZM212.875 221.547C213.083 215.036 213.083 208.513 212.875 201.977C212.875 201.065 210.909 200.284 206.977 199.633C206.378 198.044 206.378 196.469 206.977 194.906H223.852C224.581 195.193 225.102 195.505 225.414 195.844C225.753 196.182 226.052 196.677 226.312 197.328C226.312 197.797 226.247 198.539 226.117 199.555C225.987 200.57 225.922 201.378 225.922 201.977C225.661 210.544 225.661 218.005 225.922 224.359C227.797 224.958 229.776 225.31 231.859 225.414C232.432 226.951 232.432 228.604 231.859 230.375C228.448 230.583 224.229 231.755 219.203 233.891C216.365 233.682 214.255 232.823 212.875 231.312V230.297C209.307 232.589 205.076 233.734 200.18 233.734C196.638 233.734 194.125 232.771 192.641 230.844C191.156 228.917 190.388 225.896 190.336 221.781C190.388 215.245 190.388 208.643 190.336 201.977C190.336 201.065 188.357 200.284 184.398 199.633C183.826 198.044 183.826 196.469 184.398 194.906H201.352C202.107 195.193 202.641 195.505 202.953 195.844C203.292 196.182 203.591 196.677 203.852 197.328C203.852 197.797 203.786 198.539 203.656 199.555C203.526 200.57 203.461 201.378 203.461 201.977C203.279 208.044 203.279 214.229 203.461 220.531C203.565 223.5 204.099 225.232 205.062 225.727C206.964 225.232 209.568 223.839 212.875 221.547ZM214.477 201.977C214.633 208.747 214.633 215.544 214.477 222.367C209.633 225.831 205.896 227.562 203.266 227.562C199.698 227.562 197.914 225.219 197.914 220.531C197.758 214.229 197.758 208.044 197.914 201.977C197.914 201.273 197.979 200.427 198.109 199.438C198.266 198.448 198.344 197.823 198.344 197.562C198.057 196.964 197.68 196.56 197.211 196.352C193.357 196.612 189.516 196.612 185.688 196.352C185.479 196.951 185.479 197.562 185.688 198.188C189.802 198.839 191.885 200.102 191.938 201.977C191.99 208.591 191.99 215.193 191.938 221.781C191.885 225.323 192.497 227.94 193.773 229.633C195.049 231.299 197.185 232.133 200.18 232.133C204.112 232.133 208.878 229.698 214.477 224.828V230.531C214.685 230.948 215.141 231.286 215.844 231.547C219.568 230.167 224.398 229.242 230.336 228.773C230.544 228.122 230.544 227.51 230.336 226.938C225.857 226.755 222.549 226.221 220.414 225.336C220.206 216.039 220.206 208.253 220.414 201.977C220.414 201.273 220.479 200.427 220.609 199.438C220.74 198.448 220.805 197.823 220.805 197.562C220.544 196.964 220.167 196.56 219.672 196.352C215.896 196.56 212.081 196.56 208.227 196.352C208.018 196.951 208.018 197.562 208.227 198.188C212.341 198.839 214.424 200.102 214.477 201.977ZM252.484 209.008C253.135 206.612 254.477 204.281 256.508 202.016C258.539 199.75 260.609 198.617 262.719 198.617C265.193 198.617 266.43 199.411 266.43 201C266.43 202.432 265.753 203.344 264.398 203.734C264.034 204.255 264.034 204.867 264.398 205.57C265.805 205.57 266.951 205.141 267.836 204.281C268.747 203.422 269.203 202.224 269.203 200.688C269.203 199.073 268.708 197.81 267.719 196.898C266.755 195.961 265.492 195.492 263.93 195.492C261.898 195.492 259.854 196.312 257.797 197.953C255.766 199.568 253.995 201.378 252.484 203.383V196.664C252.276 196.247 251.833 195.909 251.156 195.648C247.667 197.289 243.63 198.357 239.047 198.852C238.891 199.477 238.891 200.089 239.047 200.688C242.562 200.844 245.076 201.378 246.586 202.289C246.794 212.003 246.768 219.789 246.508 225.648C246.456 227.576 244.242 228.826 239.867 229.398C239.477 230.102 239.477 230.714 239.867 231.234C246.69 230.922 254.125 230.922 262.172 231.234C262.536 230.714 262.536 230.102 262.172 229.398C256 228.826 252.888 227.576 252.836 225.648C252.602 220.362 252.484 214.815 252.484 209.008ZM258.344 225.57C258.396 226.586 260.154 227.38 263.617 227.953C264.477 229.672 264.424 231.326 263.461 232.914C252.419 232.549 244.073 232.471 238.422 232.68C237.458 231.143 237.406 229.568 238.266 227.953C242.641 227.38 244.854 226.586 244.906 225.57C245.219 218.148 245.245 210.701 244.984 203.227C243.266 202.706 240.896 202.367 237.875 202.211C237.276 200.648 237.276 198.995 237.875 197.25C242.224 196.99 246.833 195.818 251.703 193.734C254.516 194.047 256.625 194.893 258.031 196.273C260.219 194.685 262.185 193.891 263.93 193.891C265.961 193.891 267.615 194.49 268.891 195.688C270.167 196.885 270.805 198.552 270.805 200.688C270.805 202.719 270.206 204.307 269.008 205.453C267.81 206.599 266.273 207.172 264.398 207.172C262.654 207.172 261.195 206.586 260.023 205.414C258.956 206.846 258.292 208.148 258.031 209.32C258.031 214.971 258.135 220.388 258.344 225.57ZM296.352 198.031C298.435 198.031 299.945 198.708 300.883 200.062C301.82 201.391 302.289 203.057 302.289 205.062C302.289 205.818 302.159 206.677 301.898 207.641H286.664C287.471 204.385 288.773 201.977 290.57 200.414C292.393 198.826 294.32 198.031 296.352 198.031ZM286.273 210.297H307.562C307.979 208.995 308.188 207.654 308.188 206.273C308.188 203.227 307.315 200.674 305.57 198.617C303.852 196.534 301.104 195.492 297.328 195.492C292.406 195.492 288.266 197.276 284.906 200.844C281.547 204.411 279.867 208.943 279.867 214.438C279.867 220.297 281.469 224.711 284.672 227.68C287.875 230.648 291.638 232.133 295.961 232.133C299.164 232.133 302.133 231.273 304.867 229.555C307.628 227.81 309.646 225.193 310.922 221.703C310.557 221.286 310.049 221 309.398 220.844C309.294 221 308.982 221.43 308.461 222.133C307.966 222.81 307.602 223.305 307.367 223.617C307.133 223.904 306.703 224.333 306.078 224.906C305.479 225.453 304.893 225.857 304.32 226.117C303.773 226.378 303.07 226.638 302.211 226.898C301.352 227.133 300.414 227.25 299.398 227.25C295.388 227.25 292.198 226.065 289.828 223.695C287.458 221.299 286.221 218.083 286.117 214.047C286.117 213.135 286.169 211.885 286.273 210.297ZM308.773 219.008C310.414 219.372 311.742 220.193 312.758 221.469C311.273 225.531 308.982 228.591 305.883 230.648C302.784 232.706 299.477 233.734 295.961 233.734C291.169 233.734 287.016 232.12 283.5 228.891C280.01 225.661 278.266 220.844 278.266 214.438C278.266 208.63 280.049 203.76 283.617 199.828C287.211 195.87 292.289 193.891 298.852 193.891C308.773 193.891 313.734 198.018 313.734 206.273C313.734 207.888 313.357 209.763 312.602 211.898H291.625V214.438C291.755 217.589 292.615 220.154 294.203 222.133C295.792 224.086 297.979 225.232 300.766 225.57C302.406 225.414 303.76 224.854 304.828 223.891C305.896 222.927 307.211 221.299 308.773 219.008ZM300.688 205.062C300.688 202.198 299.724 200.466 297.797 199.867C295.505 200.57 293.799 202.628 292.68 206.039H300.609C300.609 205.935 300.622 205.779 300.648 205.57C300.674 205.362 300.688 205.193 300.688 205.062ZM49.918 267.805C48.9551 267.842 48.3887 268.069 48.2188 268.484C48.0488 268.881 48.1715 269.598 48.5869 270.637L57.3096 292.104L60.7646 282.814L55.8936 270.58C55.4782 269.579 54.9684 268.89 54.3643 268.513C53.7601 268.116 52.8066 267.88 51.5039 267.805C51.0319 266.596 51.0319 265.473 51.5039 264.435H71.498C71.9701 265.473 71.9701 266.596 71.498 267.805C69.459 267.88 68.1279 268.163 67.5049 268.654C66.8818 269.126 66.7308 269.787 67.0518 270.637L75.1514 291.934L83.1094 270.637C83.487 269.598 83.3548 268.909 82.7129 268.569C82.0898 268.211 80.8249 267.956 78.918 267.805C78.4648 266.596 78.4648 265.473 78.918 264.435H95.7402C96.2122 265.473 96.2122 266.596 95.7402 267.805C92.8893 267.993 91.0579 268.277 90.2461 268.654C89.3965 269.089 88.7923 269.749 88.4336 270.637L73.9336 308.982H71.0449L63.4551 289.413L56.0635 308.982H53.2314L37.4004 270.637C37.0228 269.712 36.3525 269.06 35.3896 268.683C34.4456 268.286 33.0296 267.993 31.1416 267.805C30.6696 266.596 30.6696 265.473 31.1416 264.435H49.918C50.39 265.473 50.39 266.596 49.918 267.805ZM48.9551 265.369H32.1328C31.8874 265.747 31.8874 266.19 32.1328 266.7C35.5312 267.04 37.6364 268.201 38.4482 270.184L53.9961 307.821H55.2705L63.3135 286.241L71.8662 307.821H73.1406L87.5273 269.815C87.9427 268.739 88.6979 267.993 89.793 267.578C90.9069 267.144 92.4834 266.851 94.5225 266.7C94.7679 266.19 94.7679 265.747 94.5225 265.369H80.1357C79.9092 265.747 79.9092 266.19 80.1357 266.7C82.3825 266.965 83.7607 267.314 84.2705 267.748C84.8936 268.239 85.0257 268.928 84.667 269.815L73.6504 299.467L62.4639 270.184C62.0296 269.164 62.4733 268.371 63.7949 267.805C65.1165 267.219 67.2783 266.851 70.2803 266.7C70.5257 266.19 70.5257 265.747 70.2803 265.369H52.4951C52.2497 265.747 52.2497 266.19 52.4951 266.7C53.6846 266.813 54.6191 267.125 55.2988 267.635C55.9785 268.126 56.5449 268.975 56.998 270.184L61.9824 282.814L55.7803 299.467L43.8857 270.184C43.2438 268.9 43.3099 268.05 44.084 267.635C44.8581 267.201 46.4818 266.889 48.9551 266.7C49.1816 266.19 49.1816 265.747 48.9551 265.369ZM110.778 283.098C112.289 283.098 113.384 283.589 114.063 284.57C114.743 285.533 115.083 286.742 115.083 288.195C115.083 288.743 114.989 289.366 114.8 290.064H103.755C104.34 287.704 105.284 285.958 106.587 284.825C107.909 283.674 109.306 283.098 110.778 283.098ZM103.472 291.99H118.906C119.208 291.046 119.359 290.074 119.359 289.073C119.359 286.864 118.727 285.014 117.462 283.522C116.216 282.012 114.224 281.257 111.486 281.257C107.918 281.257 104.916 282.55 102.48 285.137C100.045 287.723 98.8271 291.008 98.8271 294.992C98.8271 299.24 99.9883 302.44 102.311 304.593C104.633 306.745 107.361 307.821 110.495 307.821C112.817 307.821 114.97 307.198 116.952 305.952C118.953 304.687 120.417 302.79 121.342 300.26C121.077 299.958 120.709 299.75 120.237 299.637C120.162 299.75 119.935 300.062 119.558 300.571C119.199 301.062 118.935 301.421 118.765 301.647C118.595 301.855 118.283 302.167 117.83 302.582C117.396 302.979 116.971 303.271 116.556 303.46C116.159 303.649 115.649 303.838 115.026 304.026C114.403 304.196 113.724 304.281 112.987 304.281C110.08 304.281 107.767 303.422 106.049 301.704C104.331 299.967 103.434 297.635 103.358 294.709C103.358 294.048 103.396 293.142 103.472 291.99ZM119.784 298.306C120.974 298.57 121.937 299.165 122.673 300.09C121.597 303.035 119.935 305.254 117.688 306.745C115.442 308.237 113.044 308.982 110.495 308.982C107.021 308.982 104.01 307.812 101.461 305.471C98.931 303.13 97.666 299.637 97.666 294.992C97.666 290.782 98.9593 287.251 101.546 284.4C104.151 281.531 107.833 280.096 112.591 280.096C119.784 280.096 123.381 283.088 123.381 289.073C123.381 290.244 123.107 291.603 122.56 293.151H107.352V294.992C107.446 297.277 108.069 299.136 109.221 300.571C110.372 301.987 111.958 302.818 113.979 303.063C115.168 302.95 116.15 302.544 116.924 301.846C117.698 301.147 118.651 299.967 119.784 298.306ZM113.922 288.195C113.922 286.118 113.223 284.863 111.826 284.429C110.165 284.938 108.928 286.43 108.116 288.903H113.865C113.865 288.828 113.875 288.715 113.894 288.563C113.912 288.412 113.922 288.29 113.922 288.195ZM143.743 284.967C145.99 284.967 147.689 285.873 148.841 287.686C150.011 289.498 150.597 291.801 150.597 294.596C150.597 298.693 149.87 301.61 148.416 303.347C146.962 305.084 145.386 305.952 143.687 305.952C140.647 305.952 138.391 304.829 136.918 302.582C136.842 298.806 136.805 293.859 136.805 287.742C138.957 285.892 141.27 284.967 143.743 284.967ZM127.062 266.275C126.968 266.861 126.968 267.304 127.062 267.606C129.611 267.739 131.424 268.126 132.5 268.768C132.651 282.852 132.651 294.671 132.5 304.225C135.37 306.622 138.778 307.821 142.724 307.821C144.951 307.821 146.915 307.378 148.614 306.49C150.332 305.584 151.673 304.413 152.636 302.979C153.599 301.525 154.316 299.977 154.788 298.334C155.279 296.691 155.524 295.002 155.524 293.265C155.524 289.583 154.684 286.666 153.004 284.514C151.324 282.342 149.152 281.257 146.49 281.257C143.205 281.257 139.977 282.682 136.805 285.533V264.718C136.635 264.416 136.304 264.161 135.813 263.953C133.302 265.161 130.385 265.936 127.062 266.275ZM136.21 262.565C138.268 262.716 139.797 263.34 140.798 264.435V281.597C142.761 280.596 145.329 280.096 148.501 280.096C151.748 280.096 154.392 281.285 156.431 283.664C158.489 286.043 159.518 289.243 159.518 293.265C159.518 295.153 159.244 296.984 158.696 298.759C158.168 300.534 157.337 302.204 156.204 303.771C155.09 305.339 153.542 306.594 151.56 307.538C149.596 308.501 147.321 308.982 144.734 308.982C139.24 308.982 134.775 307.566 131.339 304.734C131.565 293.217 131.565 281.465 131.339 269.476C130.112 269.079 128.394 268.824 126.185 268.711C125.75 267.484 125.769 266.304 126.241 265.171C129.602 264.869 132.925 264 136.21 262.565ZM149.436 294.596C149.436 292.387 149.03 290.499 148.218 288.932C147.406 287.365 146.207 286.468 144.621 286.241C143.299 286.43 142.025 287.081 140.798 288.195C140.798 293.897 140.836 298.598 140.911 302.299C141.761 303.696 142.979 304.508 144.564 304.734C145.886 304.432 147.028 303.479 147.991 301.874C148.954 300.269 149.436 297.843 149.436 294.596ZM202.876 308.161C205.746 308.161 208.682 307.51 211.684 306.207C214.704 304.885 217.093 302.95 218.849 300.401C218.849 300.156 218.735 299.948 218.509 299.778C218.301 299.608 218.065 299.523 217.801 299.523C214.969 302.96 210.806 304.678 205.312 304.678C199.515 304.678 195.135 302.931 192.171 299.438C189.226 295.927 187.753 291.565 187.753 286.354C187.753 283.994 188.008 281.719 188.518 279.529C189.046 277.32 189.858 275.215 190.953 273.214C192.067 271.194 193.644 269.561 195.683 268.314C197.741 267.068 200.138 266.445 202.876 266.445C204.745 266.445 206.473 266.738 208.059 267.323C209.645 267.909 210.947 268.598 211.967 269.391C212.986 270.184 213.978 271.25 214.94 272.591C215.922 273.912 216.659 275.064 217.149 276.046C217.659 277.009 218.263 278.236 218.962 279.728C219.528 279.652 219.878 279.444 220.01 279.104C218.613 273.497 216.498 269.655 213.666 267.578C210.853 265.482 207.256 264.435 202.876 264.435C201.101 264.435 199.289 264.652 197.438 265.086C195.588 265.501 193.681 266.257 191.718 267.352C189.773 268.428 188.055 269.768 186.563 271.373C185.072 272.959 183.845 275.055 182.882 277.66C181.919 280.247 181.438 283.145 181.438 286.354C181.438 289.564 181.919 292.462 182.882 295.049C183.845 297.635 185.072 299.722 186.563 301.308C188.055 302.894 189.773 304.225 191.718 305.301C193.681 306.358 195.588 307.094 197.438 307.51C199.289 307.944 201.101 308.161 202.876 308.161ZM218.254 281.002C217.442 279.189 216.696 277.698 216.017 276.527C215.337 275.338 214.431 274.016 213.298 272.562C212.165 271.09 210.815 269.948 209.248 269.136C207.681 268.324 205.925 267.833 203.98 267.663C201.828 267.833 199.95 268.522 198.345 269.73C196.74 270.92 195.494 272.449 194.606 274.318C193.738 276.188 193.096 278.132 192.681 280.152C192.284 282.154 192.086 284.221 192.086 286.354C192.086 291.112 193.285 295.105 195.683 298.334C198.08 301.562 201.658 303.29 206.416 303.517C211.023 303.29 214.638 301.572 217.263 298.362C217.999 298.362 218.641 298.608 219.188 299.099C219.736 299.571 220.01 300.137 220.01 300.798C218.103 303.573 215.526 305.688 212.278 307.142C209.031 308.595 205.897 309.322 202.876 309.322C200.988 309.322 199.072 309.096 197.127 308.643C195.201 308.208 193.2 307.434 191.123 306.32C189.065 305.188 187.243 303.781 185.657 302.101C184.071 300.42 182.778 298.221 181.777 295.502C180.777 292.764 180.276 289.715 180.276 286.354C180.276 282.843 180.796 279.709 181.834 276.952C182.872 274.177 184.203 271.958 185.827 270.297C187.451 268.635 189.348 267.257 191.52 266.162C193.691 265.048 195.796 264.293 197.835 263.896C199.893 263.481 201.96 263.273 204.037 263.273C206.869 263.273 209.947 263.651 213.27 264.406C216.592 265.161 218.971 265.633 220.406 265.822C219.783 268.258 219.538 270.401 219.67 272.251C219.802 274.082 220.34 276.329 221.284 278.991C220.737 280.105 219.727 280.775 218.254 281.002ZM233.434 286.411C234.321 286.562 235.02 286.911 235.529 287.459C236.058 287.988 236.322 288.667 236.322 289.498C236.322 290.499 235.992 291.329 235.331 291.99C234.67 292.632 233.802 292.953 232.726 292.953C231.612 292.953 230.602 292.557 229.695 291.764C228.789 290.971 228.336 289.847 228.336 288.394C228.336 285.92 229.507 283.919 231.848 282.39C234.208 280.86 237.285 280.096 241.08 280.096C244.686 280.096 247.216 280.823 248.67 282.276C250.143 283.711 250.879 286.137 250.879 289.555V299.467L252.691 299.41C254.24 299.523 255.316 300.26 255.92 301.619L255.014 303.177C254.428 304.064 253.938 304.753 253.541 305.244C253.163 305.716 252.616 306.254 251.898 306.858C251.181 307.463 250.341 307.897 249.378 308.161C248.415 308.425 247.292 308.558 246.008 308.558C244.422 308.558 243.223 307.963 242.411 306.773C240.372 308.246 237.71 308.982 234.425 308.982C232.99 308.982 231.763 308.756 230.743 308.303C229.743 307.868 229.006 307.283 228.534 306.547C228.081 305.811 227.76 305.121 227.571 304.479C227.382 303.838 227.288 303.186 227.288 302.525C227.288 299.75 228.223 297.673 230.092 296.295C231.961 294.917 235.737 293.501 241.42 292.047V288.96C241.42 287.45 241.099 286.345 240.457 285.646C239.834 284.948 239.022 284.599 238.021 284.599C235.888 284.599 234.359 285.203 233.434 286.411ZM242.581 294.709V300.628C240.769 303.026 238.918 304.225 237.03 304.225C235.935 304.225 235.038 303.96 234.34 303.432C233.66 302.903 233.32 302.157 233.32 301.194C233.32 299.646 233.953 298.372 235.218 297.371C236.502 296.37 238.956 295.483 242.581 294.709ZM241.42 300.26V296.805C238.682 297.805 237.313 299.269 237.313 301.194C237.313 302.006 237.606 302.573 238.191 302.894C239.192 302.535 240.268 301.657 241.42 300.26ZM232.726 290.461C232.065 290.461 231.602 289.979 231.338 289.017C230.96 287.468 231.423 286.118 232.726 284.967C234.009 283.834 235.945 283.268 238.531 283.268C239.758 283.268 240.74 283.749 241.477 284.712C242.213 285.656 242.581 287.072 242.581 288.96V292.896C237.011 294.331 233.264 295.691 231.338 296.975C229.412 298.24 228.449 300.09 228.449 302.525C228.449 303.809 228.883 305.018 229.752 306.15C230.62 307.264 232.178 307.821 234.425 307.821C235.312 307.821 236.143 307.68 236.917 307.396C237.71 307.113 238.522 306.66 239.353 306.037C240.202 305.395 240.721 304.989 240.91 304.819C241.099 304.649 241.41 304.357 241.845 303.941C242.298 303.507 242.543 303.271 242.581 303.233C242.826 306.009 243.969 307.396 246.008 307.396C246.518 307.396 247.103 307.264 247.764 307C248.424 306.736 249.085 306.216 249.746 305.442C250.426 304.668 250.851 304.159 251.021 303.913C251.209 303.649 251.483 303.243 251.842 302.695C252.201 302.129 252.465 301.742 252.635 301.534C252.389 301.006 251.917 300.703 251.219 300.628C250.18 302.214 249.123 302.988 248.047 302.95C247.273 302.912 246.886 302.365 246.886 301.308V289.555C246.886 286.534 246.291 284.4 245.102 283.154C243.931 281.889 241.911 281.257 239.041 281.257C236.454 281.257 234.208 281.927 232.301 283.268C230.413 284.589 229.469 286.298 229.469 288.394C229.469 289.47 229.799 290.31 230.46 290.914C231.121 291.499 231.876 291.792 232.726 291.792C232.99 291.414 232.99 290.971 232.726 290.461ZM269.23 291.056C269.702 289.319 270.675 287.629 272.147 285.986C273.62 284.344 275.121 283.522 276.65 283.522C278.444 283.522 279.341 284.098 279.341 285.25C279.341 286.288 278.85 286.949 277.868 287.232C277.604 287.61 277.604 288.054 277.868 288.563C278.888 288.563 279.718 288.252 280.36 287.629C281.021 287.006 281.352 286.137 281.352 285.023C281.352 283.853 280.993 282.937 280.275 282.276C279.577 281.597 278.661 281.257 277.528 281.257C276.056 281.257 274.574 281.852 273.082 283.041C271.609 284.212 270.326 285.524 269.23 286.978V282.106C269.079 281.804 268.758 281.559 268.268 281.37C265.738 282.56 262.811 283.334 259.488 283.692C259.375 284.146 259.375 284.589 259.488 285.023C262.037 285.137 263.859 285.524 264.954 286.185C265.105 293.227 265.086 298.872 264.897 303.12C264.86 304.517 263.255 305.424 260.083 305.839C259.8 306.349 259.8 306.792 260.083 307.17C265.03 306.943 270.42 306.943 276.254 307.17C276.518 306.792 276.518 306.349 276.254 305.839C271.779 305.424 269.523 304.517 269.485 303.12C269.315 299.287 269.23 295.266 269.23 291.056ZM273.479 303.063C273.516 303.8 274.791 304.376 277.302 304.791C277.925 306.037 277.887 307.236 277.188 308.388C269.183 308.123 263.132 308.067 259.035 308.218C258.337 307.104 258.299 305.962 258.922 304.791C262.094 304.376 263.699 303.8 263.736 303.063C263.963 297.683 263.982 292.283 263.793 286.864C262.547 286.487 260.829 286.241 258.639 286.128C258.204 284.995 258.204 283.796 258.639 282.531C261.792 282.342 265.133 281.493 268.664 279.982C270.703 280.209 272.232 280.823 273.252 281.823C274.838 280.672 276.263 280.096 277.528 280.096C279.001 280.096 280.2 280.53 281.125 281.398C282.05 282.267 282.513 283.475 282.513 285.023C282.513 286.496 282.078 287.648 281.21 288.479C280.341 289.309 279.228 289.725 277.868 289.725C276.603 289.725 275.546 289.3 274.696 288.45C273.922 289.489 273.441 290.433 273.252 291.282C273.252 295.379 273.327 299.306 273.479 303.063ZM301.034 283.098C302.545 283.098 303.64 283.589 304.319 284.57C304.999 285.533 305.339 286.742 305.339 288.195C305.339 288.743 305.244 289.366 305.056 290.064H294.011C294.596 287.704 295.54 285.958 296.843 284.825C298.164 283.674 299.562 283.098 301.034 283.098ZM293.728 291.99H309.162C309.464 291.046 309.615 290.074 309.615 289.073C309.615 286.864 308.983 285.014 307.718 283.522C306.472 282.012 304.48 281.257 301.742 281.257C298.174 281.257 295.172 282.55 292.736 285.137C290.301 287.723 289.083 291.008 289.083 294.992C289.083 299.24 290.244 302.44 292.566 304.593C294.889 306.745 297.617 307.821 300.751 307.821C303.073 307.821 305.226 307.198 307.208 305.952C309.209 304.687 310.673 302.79 311.598 300.26C311.333 299.958 310.965 299.75 310.493 299.637C310.418 299.75 310.191 300.062 309.813 300.571C309.455 301.062 309.19 301.421 309.021 301.647C308.851 301.855 308.539 302.167 308.086 302.582C307.652 302.979 307.227 303.271 306.812 303.46C306.415 303.649 305.905 303.838 305.282 304.026C304.659 304.196 303.979 304.281 303.243 304.281C300.336 304.281 298.023 303.422 296.305 301.704C294.587 299.967 293.69 297.635 293.614 294.709C293.614 294.048 293.652 293.142 293.728 291.99ZM310.04 298.306C311.229 298.57 312.192 299.165 312.929 300.09C311.853 303.035 310.191 305.254 307.944 306.745C305.698 308.237 303.3 308.982 300.751 308.982C297.277 308.982 294.266 307.812 291.717 305.471C289.187 303.13 287.922 299.637 287.922 294.992C287.922 290.782 289.215 287.251 291.802 284.4C294.407 281.531 298.089 280.096 302.847 280.096C310.04 280.096 313.637 283.088 313.637 289.073C313.637 290.244 313.363 291.603 312.815 293.151H297.607V294.992C297.702 297.277 298.325 299.136 299.477 300.571C300.628 301.987 302.214 302.818 304.234 303.063C305.424 302.95 306.406 302.544 307.18 301.846C307.954 301.147 308.907 299.967 310.04 298.306ZM304.178 288.195C304.178 286.118 303.479 284.863 302.082 284.429C300.421 284.938 299.184 286.43 298.372 288.903H304.121C304.121 288.828 304.131 288.715 304.149 288.563C304.168 288.412 304.178 288.29 304.178 288.195Z" fill="white"/>
</svg>
