<svg width="292" height="162" viewBox="0 0 292 162" fill="none" xmlns="http://www.w3.org/2000/svg">
<path d="M238.579 136.988C227.476 136.988 217.949 134.703 209.999 130.134C202.094 125.565 196.017 119.214 191.768 111.081C187.519 102.902 185.394 93.4438 185.394 82.7063C185.394 71.9232 187.519 62.4651 191.768 54.332C196.063 46.1533 202.163 39.7794 210.067 35.2102C218.017 30.6411 227.498 28.3565 238.51 28.3565C248.242 28.3565 256.718 30.1156 263.937 33.6339C271.202 37.1521 276.868 42.1325 280.934 48.5749C285.047 54.9717 287.217 62.4879 287.445 71.1236H256.124C255.484 65.732 253.657 61.5056 250.641 58.4442C247.671 55.3829 243.787 53.8523 238.99 53.8523C235.106 53.8523 231.702 54.9489 228.778 57.142C225.854 59.2895 223.569 62.4879 221.924 66.7372C220.325 70.9408 219.525 76.1496 219.525 82.3636C219.525 88.5776 220.325 93.8321 221.924 98.1271C223.569 102.376 225.854 105.598 228.778 107.791C231.702 109.938 235.106 111.012 238.99 111.012C242.097 111.012 244.838 110.35 247.214 109.025C249.636 107.699 251.623 105.758 253.177 103.199C254.73 100.594 255.713 97.4418 256.124 93.7408H287.445C287.126 102.422 284.955 110.007 280.934 116.495C276.959 122.983 271.362 128.032 264.143 131.642C256.969 135.206 248.448 136.988 238.579 136.988Z" fill="#04001E"/>
<path d="M7.98118 134.735V29.2803H79.9663V49.9799H33.4695V71.6063H75.3835V92.3574H33.4695V134.735H7.98118Z" fill="#04001E"/>
<path d="M94.5836 134.735L63.8947 29.2803H92.0605L107.971 98.3819H108.847L127.023 29.2803H149.988L168.165 98.5364H169.04L185.003 29.2803H213.117L182.48 134.735H157.918L138.918 70.7824H138.094L119.094 134.735H94.5836Z" fill="#04001E"/>
</svg>
